<?xml version="1.0" standalone="no"?>
<!DOCTYPE svg PUBLIC "-//W3C//DTD SVG 20010904//EN"
 "http://www.w3.org/TR/2001/REC-SVG-20010904/DTD/svg10.dtd">
<svg version="1.0" xmlns="http://www.w3.org/2000/svg"
 width="1097.000000pt" height="1280.000000pt" viewBox="0 0 1097.000000 1280.000000"
 preserveAspectRatio="xMidYMid meet">
<metadata>
Created by potrace 1.15, written by Peter Selinger 2001-2017
</metadata>
<g transform="translate(0.000000,1280.000000) scale(0.100000,-0.100000)"
fill="#000000" stroke="none">
<path d="M5245 11840 c-332 -66 -712 -282 -1075 -608 -745 -671 -1491 -1752
-1993 -2887 -595 -1347 -808 -2651 -617 -3782 110 -651 354 -1238 723 -1743
160 -218 436 -511 644 -683 446 -368 995 -647 1549 -786 871 -219 1810 -147
2621 200 1297 555 2165 1731 2352 3190 57 449 52 1011 -15 1469 -100 689 -287
1340 -588 2045 -101 235 -337 713 -466 940 -601 1063 -1306 1904 -1967 2348
-224 150 -492 266 -698 301 -124 22 -353 20 -470 -4z"/>
</g>
</svg>
